<svg width="50" height="50" viewBox="0 0 50 50" fill="none" xmlns="http://www.w3.org/2000/svg">
<path fill-rule="evenodd" clip-rule="evenodd" d="M35.6443 11.7041C35.6443 18.1681 30.8787 23.4082 25 23.4082C19.1213 23.4082 14.3557 18.1681 14.3557 11.7041C14.3557 5.2401 19.1213 0 25 0C30.8787 0 35.6443 5.2401 35.6443 11.7041ZM32.0962 11.7041C32.0962 16.0134 28.9191 19.5068 25 19.5068C21.0809 19.5068 17.9038 16.0134 17.9038 11.7041C17.9038 7.39476 21.0809 3.90136 25 3.90136C28.9191 3.90136 32.0962 7.39476 32.0962 11.7041Z" fill="#21005D"/>
<path d="M25 29.2602C13.5141 29.2602 3.72784 36.7282 0 47.191C0.908128 48.1825 1.86477 49.1204 2.86567 50C5.6416 40.3941 14.3499 33.1616 25 33.1616C35.6501 33.1616 44.3584 40.3941 47.1343 50C48.1352 49.1204 49.0919 48.1825 50 47.191C46.2722 36.7282 36.4859 29.2602 25 29.2602Z" fill="#21005D"/>
</svg>
